<svg xmlns="http://www.w3.org/2000/svg" xmlns:xlink="http://www.w3.org/1999/xlink" width="500" zoomAndPan="magnify" viewBox="0 0 375 374.999991" height="500" preserveAspectRatio="xMidYMid meet" version="1.0"><defs><g/></defs><g fill="#000000" fill-opacity="1"><g transform="translate(44.965008, 181.263089)"><g><path d="M 69.816406 -1.640625 L 34.6875 -43.003906 L 69.488281 -85.902344 C 70.253906 -86.667969 69.707031 -87.542969 68.503906 -87.542969 L 50.664062 -87.542969 C 50.445312 -87.542969 49.789062 -87.324219 49.679688 -87.214844 L 16.742188 -46.726562 L 16.742188 -86.558594 C 16.742188 -86.996094 16.304688 -87.542969 15.648438 -87.542969 L 1.203125 -87.542969 C 0.546875 -87.542969 0 -86.996094 0 -86.558594 L 0 -5.363281 C 0 -5.363281 21.339844 -29.546875 23.527344 -31.84375 L 49.023438 -0.328125 C 49.132812 -0.21875 49.789062 0 50.007812 0 L 68.832031 0 C 69.925781 0 70.472656 -0.765625 69.816406 -1.640625 Z M 69.816406 -1.640625 "/></g></g></g><g fill="#000000" fill-opacity="1"><g transform="translate(118.610888, 181.263089)"><g><path d="M 35.675781 -14.992188 L 26.917969 -14.992188 L 26.917969 -87.542969 L 10.175781 -87.542969 L 10.175781 -14.992188 L 1.203125 -14.992188 C 0.546875 -14.992188 0 -14.554688 0 -14.007812 L 0 -0.984375 C 0 -0.546875 0.546875 0 1.203125 0 L 35.675781 0 C 36.441406 0 36.878906 -0.546875 36.878906 -0.984375 L 36.878906 -14.007812 C 36.878906 -14.554688 36.441406 -14.992188 35.675781 -14.992188 Z M 35.675781 -14.992188 "/></g></g></g><g fill="#000000" fill-opacity="1"><g transform="translate(157.348833, 181.263089)"><g><path d="M 59.75 -1.421875 C 54.277344 -13.570312 48.367188 -25.605469 42.894531 -37.972656 C 51.652344 -41.144531 58.980469 -48.148438 58.980469 -61.5 C 58.980469 -87.324219 34.359375 -87.542969 29.4375 -87.542969 L 1.09375 -87.542969 C 0.546875 -87.542969 0 -86.996094 0 -86.558594 L 0 -71.675781 L 29.4375 -71.675781 C 32.0625 -71.675781 42.347656 -71.128906 42.347656 -61.5 C 42.347656 -51.871094 33.046875 -51.433594 29.4375 -51.433594 L 0 -51.433594 L 0 -0.984375 C 0 -0.546875 0.546875 0 1.09375 0 L 15.429688 0 C 16.085938 0 16.632812 -0.546875 16.632812 -0.984375 L 16.632812 -35.34375 L 26.042969 -35.34375 L 42.019531 -0.65625 C 42.128906 -0.328125 42.785156 0 43.113281 0 L 58.761719 0 C 59.640625 0 60.078125 -0.65625 59.75 -1.421875 Z M 59.75 -1.421875 "/></g></g></g><g fill="#000000" fill-opacity="1"><g transform="translate(220.270635, 181.263089)"><g><path d="M 35.675781 -14.992188 L 26.917969 -14.992188 L 26.917969 -87.542969 L 10.175781 -87.542969 L 10.175781 -14.992188 L 1.203125 -14.992188 C 0.546875 -14.992188 0 -14.554688 0 -14.007812 L 0 -0.984375 C 0 -0.546875 0.546875 0 1.203125 0 L 35.675781 0 C 36.441406 0 36.878906 -0.546875 36.878906 -0.984375 L 36.878906 -14.007812 C 36.878906 -14.554688 36.441406 -14.992188 35.675781 -14.992188 Z M 35.675781 -14.992188 "/></g></g></g><g fill="#000000" fill-opacity="1"><g transform="translate(259.00858, 181.263089)"><g><path d="M 72.441406 -87.542969 L 58.324219 -87.542969 C 57.558594 -87.542969 57.011719 -86.996094 57.011719 -86.558594 L 57.011719 -29.546875 L 16.632812 -87.214844 C 16.523438 -87.433594 15.867188 -87.542969 15.648438 -87.542969 L 1.09375 -87.542969 C 0.546875 -87.542969 0 -86.996094 0 -86.558594 L 0 -21.011719 L 16.742188 -21.011719 L 16.742188 -57.996094 L 57.011719 -0.328125 C 57.121094 -0.109375 57.777344 0 57.996094 0 L 72.441406 0 C 73.207031 0 73.644531 -0.546875 73.644531 -0.984375 L 73.644531 -86.558594 C 73.644531 -86.996094 73.207031 -87.542969 72.441406 -87.542969 Z M 72.441406 -87.542969 "/></g></g></g><g fill="#000000" fill-opacity="1"><g transform="translate(38.88289, 300.904168)"><g><path d="M 21.433594 -66.253906 L 21.433594 -1.167969 C 21.433594 -0.648438 21.953125 0 22.863281 0 L 39.621094 0 C 40.53125 0 41.183594 -0.648438 41.183594 -1.167969 L 41.183594 -66.253906 Z M 1.429688 -86.132812 L 61.058594 -86.132812 C 61.96875 -86.132812 62.488281 -86.652344 62.488281 -87.300781 L 62.488281 -102.757812 C 62.488281 -103.28125 61.96875 -103.929688 61.058594 -103.929688 L 1.429688 -103.929688 C 0.648438 -103.929688 0 -103.28125 0 -102.757812 L 0 -87.300781 C 0 -86.652344 0.648438 -86.132812 1.429688 -86.132812 Z M 1.429688 -86.132812 "/></g></g></g><g fill="#000000" fill-opacity="1"><g transform="translate(104.487876, 300.904168)"><g><path d="M 49.367188 -19.355469 L 19.875 -19.355469 L 19.875 -42.742188 L 60.667969 -42.742188 C 61.449219 -42.742188 62.097656 -43.390625 62.097656 -43.910156 L 62.097656 -60.410156 C 62.097656 -61.058594 61.449219 -61.578125 60.667969 -61.578125 L 19.875 -61.578125 L 19.875 -85.089844 L 49.367188 -85.089844 L 49.367188 -103.929688 L 1.429688 -103.929688 C 0.648438 -103.929688 0 -103.28125 0 -102.757812 L 0 -1.167969 C 0 -0.648438 0.648438 0 1.429688 0 L 49.367188 0 Z M 49.367188 -19.355469 "/></g></g></g><g fill="#000000" fill-opacity="1"><g transform="translate(169.703128, 300.904168)"><g><path d="M 59.371094 -19.097656 C 46.769531 -18.578125 20.007812 -19.875 20.007812 -51.964844 C 20.007812 -76.648438 36.765625 -86.132812 59.371094 -84.960938 L 59.371094 -61.96875 L 79.246094 -61.96875 L 79.246094 -102.757812 C 79.246094 -103.28125 78.726562 -103.929688 77.816406 -103.929688 L 60.929688 -103.929688 C 35.464844 -103.929688 0 -98.082031 0 -51.964844 C 0 -7.535156 35.074219 0 60.929688 0 L 77.816406 0 C 78.726562 0 79.246094 -0.648438 79.246094 -1.167969 L 79.246094 -19.097656 Z M 59.371094 -19.097656 "/></g></g></g><g fill="#000000" fill-opacity="1"><g transform="translate(252.975972, 300.904168)"><g><path d="M 19.875 -58.851562 L 19.875 -102.757812 C 19.875 -103.28125 19.355469 -103.929688 18.449219 -103.929688 L 1.429688 -103.929688 C 0.648438 -103.929688 0 -103.28125 0 -102.757812 L 0 -58.851562 Z M 77.6875 -103.929688 L 60.667969 -103.929688 C 59.890625 -103.929688 59.238281 -103.28125 59.238281 -102.757812 L 59.238281 -38.84375 L 19.875 -38.84375 L 19.875 -38.972656 L 0 -38.972656 L 0 -1.167969 C 0 -0.648438 0.648438 0 1.429688 0 L 18.449219 0 C 19.355469 0 19.875 -0.648438 19.875 -1.167969 L 19.875 -19.488281 L 59.238281 -19.488281 L 59.238281 -1.167969 C 59.238281 -0.648438 59.890625 0 60.667969 0 L 77.6875 0 C 78.597656 0 79.117188 -0.648438 79.117188 -1.167969 L 79.117188 -102.757812 C 79.117188 -103.28125 78.597656 -103.929688 77.6875 -103.929688 Z M 77.6875 -103.929688 "/></g></g></g></svg>